<svg xmlns="http://www.w3.org/2000/svg" version="1.1" xmlns:xlink="http://www.w3.org/1999/xlink" xmlns:svgjs="http://svgjs.dev/svgjs" width="1500" height="280" viewBox="0 0 1500 280"><g transform="matrix(1,0,0,1,-0.9090909090911055,-0.24821397297716885)"><svg viewBox="0 0 396 74" data-background-color="#000000" preserveAspectRatio="xMidYMid meet" height="280" width="1500" xmlns="http://www.w3.org/2000/svg" xmlns:xlink="http://www.w3.org/1999/xlink"><g id="tight-bounds" transform="matrix(1,0,0,1,0.24000000000003752,0.06559940714396362)"><svg viewBox="0 0 395.5199999999999 73.86880118571206" height="73.86880118571206" width="395.5199999999999"><g><svg viewBox="0 0 395.52000000000004 73.86880118571207" height="73.86880118571206" width="395.5199999999999"><g transform="matrix(1,0,0,1,0,45.65388260209873)"><svg viewBox="0 0 395.52000000000004 28.214918583613336" height="28.214918583613336" width="395.52000000000004"><g id="textblocktransform"><svg viewBox="0 0 395.52000000000004 28.214918583613336" height="28.214918583613336" width="395.52000000000004" id="textblock"><g><svg viewBox="0 0 395.52000000000004 28.214918583613336" height="28.214918583613336" width="395.52000000000004"><g transform="matrix(1,0,0,1,0,0)"><svg width="395.52000000000004" viewBox="3.6 -27.6 386.87 27.6" height="28.214918583613336" data-palette-color="#ffffff"><path d="M36.2-13.85L36.2-13.85Q36.2-10 34.6-6.85 33-3.7 30.1-1.85 27.2 0 23.35 0L23.35 0 11.05 0 11.05-5.05 23.35-5.05Q25.8-5.05 27.53-6.23 29.25-7.4 30.2-9.4 31.15-11.4 31.15-13.85L31.15-13.85Q31.15-16.3 30.2-18.25 29.25-20.2 27.53-21.38 25.8-22.55 23.35-22.55L23.35-22.55 8.7-22.55 8.7 0 3.6 0 3.6-27.6 23.35-27.6Q27.2-27.6 30.1-25.75 33-23.9 34.6-20.8 36.2-17.7 36.2-13.85ZM73.2-27.6L73.2 0 68.2 0 68.2-7.55 48.95-7.55 48.95-12.65 68.2-12.65 68.2-22.55 55.2-22.55Q52.75-22.55 50.75-21.35 48.75-20.15 47.55-18.18 46.35-16.2 46.35-13.75L46.35-13.75 46.35 0 41.3 0 41.3-13.75Q41.3-16.6 42.37-19.13 43.45-21.65 45.37-23.55 47.3-25.45 49.82-26.53 52.35-27.6 55.2-27.6L55.2-27.6 73.2-27.6ZM110.65 0L105.65 0Q105.65-3.3 104.37-6.33 103.1-9.35 100.95-11.95 98.8-14.55 96.15-16.65 93.5-18.75 90.72-20.15 87.95-21.55 85.4-22.15L85.4-22.15 85.4 0 80.4 0 80.4-27.5 83.1-27.5 83.1-27.45Q85.8-27.3 88.82-26.28 91.85-25.25 94.9-23.45 97.95-21.65 100.72-19.25 103.5-16.85 105.65-13.9L105.65-13.9 105.65-27.5 110.65-27.5 110.65 0ZM122.79-27.5L122.79 0 117.84 0 117.84-27.5 122.79-27.5ZM158.69-5.05L158.69 0 129.99 0 129.99-27.6 158.69-27.6 158.69-22.55 135.04-22.55 135.04-5.05 158.69-5.05ZM155.49-16.45L155.49-11.4 137.39-11.4 137.39-16.45 155.49-16.45ZM190.54-5L190.54 0 164.24 0 164.24-27.5 169.24-27.5 169.24-5 190.54-5ZM233.68-13.2L233.68 0 228.68 0 228.68-13.85Q228.68-16.25 227.51-18.23 226.33-20.2 224.36-21.38 222.38-22.55 219.93-22.55L219.93-22.55 218.53-22.55 218.53 0 213.53 0 213.53-27.5 219.93-27.5Q223.48-27.5 226.46-25.88 229.43-24.25 231.28-21.55L231.28-21.55Q233.18-24.25 236.06-25.88 238.93-27.5 242.38-27.5L242.38-27.5 248.78-27.5 248.78 0 243.78 0 243.78-22.55 242.38-22.55Q239.98-22.55 238.01-21.28 236.03-20 234.86-17.9 233.68-15.8 233.68-13.2L233.68-13.2ZM288.38-13.8L288.38-13.8Q288.38-10 286.81-6.88 285.23-3.75 282.38-1.88 279.53 0 275.73 0L275.73 0 267.03 0Q263.23 0 260.36-1.88 257.48-3.75 255.91-6.88 254.33-10 254.33-13.8L254.33-13.8Q254.33-17.6 255.91-20.7 257.48-23.8 260.36-25.65 263.23-27.5 267.03-27.5L267.03-27.5 275.73-27.5Q279.53-27.5 282.38-25.65 285.23-23.8 286.81-20.7 288.38-17.6 288.38-13.8ZM283.38-13.8L283.38-13.8Q283.38-16.2 282.48-18.2 281.58-20.2 279.86-21.38 278.13-22.55 275.73-22.55L275.73-22.55 267.03-22.55Q264.63-22.55 262.91-21.38 261.18-20.2 260.26-18.2 259.33-16.2 259.33-13.8L259.33-13.8Q259.33-11.4 260.26-9.4 261.18-7.4 262.91-6.2 264.63-5 267.03-5L267.03-5 275.73-5Q278.13-5 279.86-6.2 281.58-7.4 282.48-9.4 283.38-11.4 283.38-13.8ZM309.13-22.55L309.13 0 304.13 0 304.13-22.55 290.88-22.55 290.88-27.5 322.33-27.5 322.33-22.55 309.13-22.55ZM341.68-22.55L341.68 0 336.68 0 336.68-22.55 323.43-22.55 323.43-27.5 354.88-27.5 354.88-22.55 341.68-22.55ZM390.47-27.6L390.47 0 385.47 0 385.47-7.55 366.22-7.55 366.22-12.65 385.47-12.65 385.47-22.55 372.47-22.55Q370.02-22.55 368.02-21.35 366.02-20.15 364.82-18.18 363.62-16.2 363.62-13.75L363.62-13.75 363.62 0 358.57 0 358.57-13.75Q358.57-16.6 359.65-19.13 360.72-21.65 362.65-23.55 364.57-25.45 367.1-26.53 369.62-27.6 372.47-27.6L372.47-27.6 390.47-27.6Z" opacity="1" transform="matrix(1,0,0,1,0,0)" fill="#ffffff" class="wordmark-text-0" data-fill-palette-color="primary" id="text-0"></path></svg></g></svg></g></svg></g></svg></g><g transform="matrix(1,0,0,1,172.12065012690653,0)"><svg viewBox="0 0 51.27869974618699 38.99301748255363" height="38.99301748255363" width="51.27869974618699"><g><svg xmlns="http://www.w3.org/2000/svg" xmlns:xlink="http://www.w3.org/1999/xlink" version="1.1" x="8" y="0" viewBox="9.286711308756875 5 81.42697059902343 90.00000881444822" enable-background="new 0 0 100 100" xml:space="preserve" height="38.99301748255363" width="35.27869974618699" class="icon-icon-0" data-fill-palette-color="accent" id="icon-0"><g fill="#ffffff" data-fill-palette-color="accent"><path fill="none" d="M72.534 90.829H27.466A1.5 1.5 0 0 0 26.406 93.387C26.689 93.67 27.067 93.826 27.466 93.826H72.534A1.5 1.5 0 0 0 72.534 90.829"></path><path fill="none" d="M71.514 82.768L70.218 89.657H72.535C73.638 89.657 74.587 90.33 74.994 91.287 75.239 91.255 75.488 91.225 75.728 91.189 76.967 88.514 75.551 86.092 74.862 85.155 73.791 83.697 72.427 82.871 71.514 82.768"></path><path fill="none" d="M29.783 89.657L28.486 82.766C27.571 82.86 26.195 83.685 25.114 85.154 24.427 86.091 23.01 88.512 24.247 91.186 24.494 91.223 24.752 91.254 25.006 91.287A2.68 2.68 0 0 1 27.466 89.657z"></path><path fill="none" d="M47.555 28.979C47.733 28.366 47.513 27.659 46.936 26.99 46.299 26.252 45.326 25.664 44.196 25.337 43.596 25.163 42.996 25.075 42.411 25.075 40.861 25.075 39.683 25.683 39.411 26.624 39.025 27.96 40.564 29.628 42.772 30.267 43.37 30.44 43.971 30.527 44.556 30.527 46.106 30.527 47.284 29.919 47.555 28.979"></path><polygon fill="none" points="69.025,89.657 74.669,59.651 50.001,59.651 25.332,59.651 30.976,89.657  "></polygon><path fill="none" d="M80.765 59.312L81.296 59.065 80.76 59.3C76.834 50.402 73.835 49.452 62.674 45.918L60.712 45.295A19 19 0 0 1 59.124 46.325L58.559 45.297C58.676 45.233 70.175 38.761 67.667 28.551 64.572 15.947 55.629 6.173 50.001 6.173S35.429 15.947 32.333 28.551C29.822 38.776 41.325 45.233 41.441 45.297L40.876 46.325C40.848 46.31 40.206 45.948 39.262 45.276L37.399 45.869C26.19 49.421 23.178 50.376 19.242 59.3L18.705 59.064 19.236 59.311 11.798 75.296C10.133 79.166 10.023 82.4 11.47 84.908 13.16 87.837 17.089 89.907 22.907 90.964 22.231 88.863 22.668 86.504 24.169 84.461 25.348 82.856 26.928 81.789 28.269 81.617L27.963 79.986 20.707 77.131 21.136 76.039 23.304 76.893 19.724 73.694 20.505 72.819 27.848 79.38 23.915 58.477H76.081L72.149 79.38 79.492 72.819 80.273 73.694 76.693 76.893 78.859 76.039 79.289 77.131 72.035 79.986 71.727 81.621C73.064 81.802 74.633 82.865 75.805 84.46 77.307 86.504 77.743 88.865 77.065 90.968 82.897 89.913 86.835 87.839 88.527 84.906 89.974 82.398 89.864 79.165 88.198 75.295zM34.824 29.449H33.651C33.651 20.833 40.985 13.824 50 13.824S66.349 20.833 66.349 29.449H65.176C65.176 21.48 58.368 14.997 50 14.997S34.824 21.48 34.824 29.449M38.283 26.299C38.705 24.843 40.325 23.902 42.41 23.902 43.106 23.902 43.816 24.007 44.521 24.21 45.867 24.6 47.041 25.314 47.825 26.225 48.669 27.205 48.974 28.299 48.682 29.304 48.261 30.76 46.642 31.7 44.555 31.7A7.6 7.6 0 0 1 42.445 31.394C39.53 30.55 37.702 28.313 38.283 26.299M50.001 56.013L44.003 50.466 44.799 49.605 50.001 54.416 55.202 49.605 55.998 50.466zM55.446 31.7C53.359 31.7 51.739 30.76 51.319 29.304 51.028 28.298 51.333 27.205 52.177 26.225 52.961 25.315 54.134 24.6 55.481 24.21A7.6 7.6 0 0 1 57.592 23.902C59.678 23.902 61.297 24.843 61.718 26.299 62.009 27.304 61.705 28.398 60.861 29.378 60.077 30.288 58.904 31.003 57.558 31.393A7.6 7.6 0 0 1 55.446 31.7"></path><path fill="none" d="M60.59 26.624C60.318 25.683 59.141 25.075 57.591 25.075 57.005 25.075 56.404 25.163 55.806 25.337 54.675 25.663 53.701 26.251 53.064 26.99 52.487 27.66 52.267 28.367 52.444 28.979 52.715 29.919 53.893 30.527 55.445 30.527 56.03 30.527 56.63 30.44 57.229 30.267 58.359 29.94 59.332 29.352 59.969 28.613 60.548 27.943 60.767 27.237 60.59 26.624"></path><path d="M50.001 14.997C58.369 14.997 65.177 21.48 65.177 29.449H66.35C66.35 20.833 59.016 13.824 50.001 13.824S33.652 20.833 33.652 29.449H34.825C34.824 21.48 41.632 14.997 50.001 14.997" fill="#ffffff" data-fill-palette-color="accent"></path><path d="M48.682 29.304C48.973 28.298 48.669 27.205 47.825 26.225 47.041 25.315 45.868 24.6 44.521 24.21A7.6 7.6 0 0 0 42.41 23.902C40.325 23.902 38.705 24.843 38.283 26.299 37.702 28.313 39.53 30.55 42.445 31.394A7.6 7.6 0 0 0 44.555 31.7C46.642 31.7 48.261 30.76 48.682 29.304M39.41 26.624C39.682 25.683 40.86 25.075 42.41 25.075 42.996 25.075 43.596 25.163 44.195 25.337 45.326 25.663 46.299 26.251 46.935 26.99 47.512 27.66 47.732 28.367 47.554 28.979 47.282 29.919 46.104 30.527 44.554 30.527A6.4 6.4 0 0 1 42.77 30.267C40.564 29.628 39.024 27.96 39.41 26.624" fill="#ffffff" data-fill-palette-color="accent"></path><path d="M60.86 29.378C61.704 28.398 62.008 27.304 61.717 26.299 61.297 24.843 59.677 23.902 57.591 23.902 56.895 23.902 56.184 24.007 55.48 24.21 54.133 24.6 52.96 25.314 52.176 26.225 51.332 27.205 51.027 28.299 51.318 29.304 51.738 30.76 53.358 31.7 55.445 31.7 56.141 31.7 56.851 31.598 57.556 31.394 58.903 31.003 60.076 30.288 60.86 29.378M57.231 30.267A6.4 6.4 0 0 1 55.447 30.527C53.895 30.527 52.717 29.919 52.446 28.979 52.269 28.366 52.488 27.659 53.066 26.99 53.703 26.252 54.676 25.664 55.808 25.337A6.4 6.4 0 0 1 57.593 25.075C59.143 25.075 60.32 25.683 60.592 26.624 60.769 27.237 60.549 27.943 59.973 28.613 59.334 29.352 58.361 29.94 57.231 30.267" fill="#ffffff" data-fill-palette-color="accent"></path><path d="M89.279 74.833L88.74 75.066 89.271 74.819 81.832 58.828C77.692 49.445 74.292 48.368 63.028 44.801L61.861 44.43C65.345 41.659 70.699 35.979 68.805 28.272 65.535 14.952 56.18 5 50.001 5 43.821 5 34.466 14.952 31.195 28.271 29.306 35.961 34.631 41.632 38.116 44.411L37.045 44.751C25.734 48.336 22.319 49.418 18.169 58.827L10.729 74.818 11.26 75.065 10.721 74.832C8.902 79.061 8.813 82.648 10.455 85.494 12.555 89.133 17.386 91.465 24.807 92.443A2.654 2.654 0 0 0 27.466 95H72.534A2.67 2.67 0 0 0 75.194 92.443C82.614 91.467 87.445 89.133 89.545 85.494 91.188 82.648 91.098 79.061 89.279 74.833M25.007 91.287C24.754 91.254 24.496 91.223 24.248 91.186 23.011 88.512 24.428 86.091 25.115 85.154 26.195 83.685 27.572 82.86 28.487 82.766L29.784 89.657H27.467A2.67 2.67 0 0 0 25.007 91.287M25.332 59.651H74.669L69.025 89.657H30.976zM72.534 93.827H27.466C27.066 93.827 26.689 93.67 26.406 93.388A1.5 1.5 0 0 1 27.466 90.83H72.534A1.498 1.498 0 0 1 72.534 93.827M75.728 91.189C75.488 91.225 75.239 91.254 74.994 91.287A2.68 2.68 0 0 0 72.535 89.657H70.218L71.514 82.768C72.427 82.871 73.792 83.697 74.862 85.155 75.551 86.092 76.966 88.513 75.728 91.189M88.53 84.907C86.838 87.84 82.899 89.914 77.068 90.969 77.746 88.866 77.31 86.505 75.808 84.461 74.636 82.865 73.066 81.803 71.73 81.622L72.038 79.987 79.292 77.132 78.862 76.04 76.696 76.894 80.276 73.695 79.495 72.82 72.152 79.381 76.084 58.478H23.917L27.85 79.381 20.507 72.82 19.726 73.695 23.306 76.894 21.138 76.04 20.709 77.132 27.965 79.987 28.271 81.618C26.929 81.79 25.35 82.857 24.171 84.462 22.67 86.505 22.233 88.864 22.909 90.965 17.091 89.908 13.161 87.838 11.472 84.909 10.024 82.401 10.135 79.167 11.8 75.297L19.238 59.312 18.707 59.065 19.244 59.301C23.18 50.377 26.192 49.422 37.401 45.87L39.264 45.277A19 19 0 0 0 40.878 46.326L41.443 45.298C41.326 45.234 29.824 38.777 32.335 28.552 35.429 15.947 44.372 6.173 50.001 6.173S64.572 15.947 67.668 28.551C70.176 38.762 58.677 45.233 58.56 45.297L59.125 46.325A19 19 0 0 0 60.713 45.295L62.675 45.918C73.835 49.452 76.835 50.402 80.761 59.3L81.297 59.064 80.766 59.311 88.203 75.296C89.867 79.166 89.977 82.4 88.53 84.907" fill="#ffffff" data-fill-palette-color="accent"></path><polygon points="50.001,54.415 44.799,49.605 44.003,50.466 50.001,56.013 55.998,50.466 55.202,49.605  " fill="#ffffff" data-fill-palette-color="accent"></polygon></g></svg></g></svg></g><g><rect width="172.12065012690647" height="2.544450475666229" y="35.4485670068874" x="223.3993498730935" fill="#ffffff" data-fill-palette-color="accent"></rect><rect width="172.12065012690647" height="2.544450475666229" y="35.4485670068874" x="5.684341886080802e-14" fill="#ffffff" data-fill-palette-color="accent"></rect><rect width="172.12065012690647" height="2.544450475666229" y="30.359666055554946" x="223.3993498730935" fill="#ffffff" data-fill-palette-color="accent"></rect><rect width="172.12065012690647" height="2.544450475666229" y="30.359666055554946" x="5.684341886080802e-14" fill="#ffffff" data-fill-palette-color="accent"></rect></g></svg></g><defs></defs></svg><rect width="395.5199999999999" height="73.86880118571206" fill="none" stroke="none" visibility="hidden"></rect></g></svg></g></svg>